<svg width="500" height="500" viewBox="0 0 500 500" fill="none" xmlns="http://www.w3.org/2000/svg">
<path d="M406.25 62.4999H390.625V47.3144C390.625 38.9062 384.16 31.6894 375.752 31.2694C373.639 31.1677 371.528 31.4959 369.546 32.2342C367.564 32.9725 365.752 34.1055 364.221 35.5646C362.69 37.0237 361.471 38.7785 360.638 40.7226C359.805 42.6668 359.375 44.7598 359.375 46.8749V62.4999H140.625V47.3144C140.625 38.9062 134.16 31.6894 125.752 31.2694C123.639 31.1677 121.528 31.4959 119.546 32.2342C117.564 32.9725 115.752 34.1055 114.221 35.5646C112.69 37.0237 111.471 38.7785 110.638 40.7226C109.805 42.6668 109.375 44.7598 109.375 46.8749V62.4999H93.75C77.174 62.4999 61.2768 69.0847 49.5558 80.8057C37.8348 92.5268 31.25 108.424 31.25 125V136.719C31.25 137.755 31.6616 138.748 32.3941 139.481C33.1267 140.213 34.1202 140.625 35.1562 140.625H464.844C465.88 140.625 466.873 140.213 467.606 139.481C468.338 138.748 468.75 137.755 468.75 136.719V125C468.75 108.424 462.165 92.5268 450.444 80.8057C438.723 69.0847 422.826 62.4999 406.25 62.4999ZM465.82 171.875H34.1797C33.4027 171.875 32.6575 172.184 32.1081 172.733C31.5587 173.282 31.25 174.028 31.25 174.805V406.25C31.25 422.826 37.8348 438.723 49.5558 450.444C61.2768 462.165 77.174 468.75 93.75 468.75H406.25C422.826 468.75 438.723 462.165 450.444 450.444C462.165 438.723 468.75 422.826 468.75 406.25V174.805C468.75 174.028 468.441 173.282 467.892 172.733C467.342 172.184 466.597 171.875 465.82 171.875ZM218.75 300.225C218.75 307.624 215.81 314.721 210.578 319.953C205.346 325.185 198.249 328.125 190.85 328.125H121.65C114.251 328.125 107.154 325.185 101.922 319.953C96.6895 314.721 93.75 307.624 93.75 300.225V231.025C93.75 223.626 96.6895 216.529 101.922 211.297C107.154 206.064 114.251 203.125 121.65 203.125H190.85C198.249 203.125 205.346 206.064 210.578 211.297C215.81 216.529 218.75 223.626 218.75 231.025V300.225Z" fill="#D97757"/>
</svg>
